name C:\Users\antoi\Documents\MyRepositories\upper-imu-dc\Results\main_tracking\Case_100\kinematics.mot
datacolumns 43
datarows 6
range 2.08000000 2.18000000
endheader 
time	clav_prot	clav_elev	scapula_abduction	scapula_elevation	scapula_upward_rot	scapula_winging	plane_elv	shoulder_elv	axial_rot	TrapeziusScapula_M/activation	TrapeziusScapula_S/activation	TrapeziusScapula_I/activation	TrapeziusClavicle_S/activation	SerratusAnterior_I/activation	SerratusAnterior_M/activation	SerratusAnterior_S/activation	Rhomboideus_S/activation	Rhomboideus_I/activation	LevatorScapulae/activation	Coracobrachialis/activation	DeltoideusClavicle_A/activation	DeltoideusScapula_P/activation	DeltoideusScapula_M/activation	LatissimusDorsi_S/activation	LatissimusDorsi_M/activation	LatissimusDorsi_I/activation	PectoralisMajorClavicle_S/activation	PectoralisMajorThorax_I/activation	PectoralisMajorThorax_M/activation	TeresMajor/activation	Infraspinatus_I/activation	Infraspinatus_S/activation	PectoralisMinor/activation	TeresMinor/activation	Subscapularis_S/activation	Subscapularis_M/activation	Subscapularis_I/activation	Supraspinatus_P/activation	Supraspinatus_A/activation	TRIlong/activation	BIC_long/activation	BIC_brevis/activation	
          2.08000000	        -25.89801379	         -0.44575414	          0.06954768	         -6.86287213	         40.76888447	         -2.10587579	         67.86868667	         85.33173192	        -15.63121587	          0.01451403	          0.01646352	          0.02188489	          0.03004620	          0.10475971	          0.11420691	          0.02874823	          0.01031967	          0.01000001	          0.01000003	          0.07320424	          0.13949402	          0.01000001	          0.13246000	          0.01000002	          0.01000000	          0.01000000	          0.08417741	          0.01000000	          0.03655046	          0.01000001	          0.12485760	          0.01000003	          0.01000002	          0.08911179	          0.01000003	          0.01000003	          0.01000001	          0.02711329	          0.02820344	          0.01000001	          0.01000001	          0.11161063	
          2.10000000	        -26.22245056	         -0.29777214	         -0.01953096	         -6.85703121	         41.42044178	         -2.28678158	         67.59436406	         86.05790032	        -15.43155016	          0.01510351	          0.01766595	          0.02289182	          0.03067007	          0.10609437	          0.11629456	          0.02786916	          0.01016823	          0.01000001	          0.01000003	          0.07430006	          0.13787042	          0.01000002	          0.13353780	          0.01000002	          0.01000000	          0.01000000	          0.08310572	          0.01000000	          0.03393435	          0.01000001	          0.12659295	          0.01000003	          0.01000001	          0.09088649	          0.01000003	          0.01000003	          0.01000001	          0.02698472	          0.02851805	          0.01000001	          0.01000001	          0.10923610	
          2.12000000	        -26.55281657	         -0.15941168	         -0.11596863	         -6.85617157	         42.07014944	         -2.46499095	         67.32297486	         86.76661803	        -15.24968161	          0.01572168	          0.01887901	          0.02404229	          0.03127024	          0.10751562	          0.11841190	          0.02694483	          0.01002465	          0.01000001	          0.01000003	          0.07505583	          0.13606013	          0.01000002	          0.13464557	          0.01000001	          0.01000000	          0.01000000	          0.08185420	          0.01000000	          0.03127475	          0.01000001	          0.12829696	          0.01000002	          0.01000001	          0.09261835	          0.01000002	          0.01000003	          0.01000001	          0.02685054	          0.02881922	          0.01000001	          0.01000001	          0.10653336	
          2.14000000	        -26.88950185	         -0.02830265	         -0.21914330	         -6.85888959	         42.72044060	         -2.64195321	         67.05479590	         87.45816530	        -15.08742865	          0.01638549	          0.02013900	          0.02531328	          0.03184972	          0.10900954	          0.12057889	          0.02597045	          0.01000001	          0.01000001	          0.01000002	          0.07543868	          0.13405890	          0.01000002	          0.13577130	          0.01000002	          0.01000000	          0.01000000	          0.08040813	          0.01000000	          0.02854846	          0.01000001	          0.12994536	          0.01000002	          0.01000001	          0.09428287	          0.01000002	          0.01000003	          0.01000000	          0.02671060	          0.02910182	          0.01000001	          0.01000001	          0.10347921	
          2.16000000	        -27.23374364	          0.09850859	         -0.32930599	         -6.86349439	         43.37465741	         -2.81954082	         66.78941610	         88.13197643	        -14.94369275	          0.01709417	          0.02149845	          0.02663930	          0.03242704	          0.11051656	          0.12281421	          0.02496653	          0.01000004	          0.01000001	          0.01000002	          0.07544668	          0.13187703	          0.01000000	          0.13686564	          0.01000002	          0.01000000	          0.01000000	          0.07877279	          0.01000000	          0.02575711	          0.01000001	          0.13151939	          0.01000002	          0.01000001	          0.09586336	          0.01000003	          0.01000003	          0.01000001	          0.02656606	          0.02936452	          0.01000001	          0.01000001	          0.10009866	
          2.18000000	        -27.58724880	          0.22416888	         -0.44725640	         -6.86818937	         44.03649600	         -2.99980947	         66.52551969	         88.78694464	        -14.81554769	          0.01787192	          0.02307112	          0.02793767	          0.03303085	          0.11194979	          0.12514758	          0.02394559	          0.01000003	          0.01000001	          0.01000002	          0.07518621	          0.12962214	          0.01079676	          0.13790975	          0.01000002	          0.01000000	          0.01000000	          0.07707129	          0.01000000	          0.02302381	          0.01000001	          0.13287845	          0.01000002	          0.01000001	          0.09721167	          0.01000002	          0.01000002	          0.01000000	          0.02646864	          0.02965055	          0.01000001	          0.01000001	          0.09663854	
